<svg width="158" height="146" viewBox="0 0 158 146" fill="none" xmlns="http://www.w3.org/2000/svg">
<circle cx="71.7747" cy="71.7747" r="71.7747" fill="#EAEEF1"/>
<circle cx="71.1878" cy="71.897" r="41.9195" fill="#EAEEF1" stroke="#D0D8E1" stroke-width="2"/>
<circle cx="71.1878" cy="71.897" r="29.6568" fill="white" stroke="#D0D8E1" stroke-width="2"/>
<path d="M71.1876 49.3586C71.1876 48.9084 70.8224 48.542 70.3725 48.5577C64.7399 48.7542 59.3574 50.9827 55.2292 54.8466C51.1009 58.7104 48.5215 63.9339 47.9531 69.5411C47.9077 69.989 48.2492 70.3777 48.6984 70.4074C49.1476 70.4372 49.5343 70.0968 49.5809 69.649C50.1212 64.4546 52.517 59.618 56.3432 56.0369C60.1694 52.4557 65.1538 50.3848 70.3726 50.189C70.8224 50.1721 71.1876 49.8088 71.1876 49.3586Z" fill="#D0D8E1"/>
<rect x="103.864" y="117.411" width="14" height="42" rx="7" transform="rotate(-45 103.864 117.411)" fill="#EAEEF1" stroke="#D0D8E1" stroke-width="2"/>
<rect x="118.64" y="120.781" width="1.94836" height="16.3364" rx="0.974179" transform="rotate(-45 118.64 120.781)" fill="white"/>
<rect x="102.442" y="107.503" width="2" height="8" transform="rotate(-45 102.442 107.503)" fill="#D0D8E1"/>
<rect x="123.663" y="66.8608" width="20" height="2" rx="1" fill="#D0D8E1"/>
<rect y="83.4058" width="20" height="2" rx="1" fill="#D0D8E1"/>
<rect x="147.663" y="66.8608" width="10" height="2" rx="1" fill="#D0D8E1"/>
<rect x="128.663" y="74.1987" width="10" height="2" rx="1" fill="#D0D8E1"/>
<rect x="5" y="90.7437" width="10" height="2" rx="1" fill="#D0D8E1"/>
</svg>
